<?xml version="1.0" standalone="no"?>
<!DOCTYPE svg PUBLIC "-//W3C//DTD SVG 20010904//EN"
 "http://www.w3.org/TR/2001/REC-SVG-20010904/DTD/svg10.dtd">
<svg version="1.0" xmlns="http://www.w3.org/2000/svg"
 width="500.000000pt" height="708.000000pt" viewBox="0 0 500.000000 708.000000"
 preserveAspectRatio="xMidYMid meet">

<g transform="translate(0.000000,708.000000) scale(0.100000,-0.100000)"
fill="#000000" stroke="none">
<path d="M750 3850 l0 -2640 1755 0 1755 0 0 2640 0 2640 -1755 0 -1755 0 0
-2640z m3370 0 l0 -2500 -1615 0 -1615 0 0 445 0 445 108 0 107 1 789 1070
c481 652 794 1068 801 1065 7 -2 164 -105 349 -227 185 -122 338 -220 340
-218 2 2 24 328 50 724 25 396 48 743 51 771 6 46 18 67 125 211 l118 160 13
276 12 277 184 0 183 0 0 -2500z"/>
<path d="M2749 3229 c-23 -41 -139 -240 -256 -444 l-213 -370 255 -3 c140 -1
370 -1 510 0 l255 3 -246 430 c-135 237 -249 436 -254 444 -5 10 -20 -8 -51
-60z"/>
<path d="M2687 2049 c-77 -18 -121 -53 -137 -108 l-9 -31 332 0 332 0 -30 25
c-47 39 -163 92 -242 109 -77 17 -185 19 -246 5z"/>
<path d="M847 757 l-128 -172 68 -3 c67 -3 68 -3 96 32 l29 36 119 0 119 0 22
-35 c23 -34 24 -35 97 -35 57 0 71 3 64 13 -5 6 -63 85 -128 175 l-119 162
-55 0 -56 -1 -128 -172z m222 15 c17 -27 31 -52 31 -55 0 -4 -31 -7 -70 -7
-38 0 -70 3 -70 7 0 12 62 103 70 103 4 0 22 -22 39 -48z"/>
<path d="M3700 755 l0 -175 65 0 64 0 3 115 3 115 172 -115 c163 -108 176
-115 223 -115 l50 0 0 170 0 170 -65 0 -64 0 -3 -110 -3 -110 -172 115 c-163
108 -176 115 -223 115 l-50 0 0 -175z"/>
<path d="M1660 750 l0 -170 160 0 160 0 0 30 0 30 -95 0 -95 0 0 140 0 140
-65 0 -65 0 0 -170z"/>
<path d="M2250 895 c0 -23 3 -24 68 -27 l67 -3 3 -142 3 -143 64 0 65 0 0 145
0 145 65 0 c63 0 65 1 65 25 l0 25 -200 0 -200 0 0 -25z"/>
<path d="M2980 750 l0 -170 175 0 175 0 0 30 0 29 -107 3 -108 3 -3 43 -3 42
105 0 106 0 0 30 0 29 -102 3 -103 3 0 35 0 35 108 3 c106 3 107 3 107 27 l0
25 -175 0 -175 0 0 -170z"/>
</g>
</svg>
