<svg width="800" height="600" viewBox="0 0 800 600" xmlns="http://www.w3.org/2000/svg">
  <!-- Background circle -->
  <circle cx="400" cy="300" r="280" fill="#E6E9FF" opacity="0.3"/>
  
  <!-- Gears -->
  <g transform="translate(200, 150)">
    <circle cx="0" cy="0" r="40" fill="#7C8FFF" opacity="0.7"/>
    <circle cx="0" cy="0" r="25" fill="none" stroke="#5C6FFF" stroke-width="2"/>
    <circle cx="0" cy="0" r="8" fill="#5C6FFF"/>
  </g>
  
  <g transform="translate(280, 120)">
    <circle cx="0" cy="0" r="30" fill="#9CAEFF" opacity="0.7"/>
    <circle cx="0" cy="0" r="18" fill="none" stroke="#7C8FFF" stroke-width="2"/>
    <circle cx="0" cy="0" r="6" fill="#7C8FFF"/>
  </g>
  
  <!-- Directional signs -->
  <g transform="translate(500, 180)">
    <!-- Sign post -->
    <rect x="-5" y="0" width="10" height="200" fill="#FF6B6B"/>
    <circle cx="0" cy="0" r="8" fill="#FF6B6B"/>
    
    <!-- Red arrow (top) -->
    <path d="M 0,-20 L 80,-10 L 80,-30 L 120,0 L 80,30 L 80,10 L 0,20 Z" fill="#FF6B6B"/>
    
    <!-- Blue arrow (middle) -->
    <path d="M 0,40 L -80,50 L -80,30 L -120,60 L -80,90 L -80,70 L 0,80 Z" fill="#4F63FF"/>
    
    <!-- Light blue arrow (bottom) -->
    <path d="M 0,100 L 70,110 L 70,90 L 100,120 L 70,150 L 70,130 L 0,140 Z" fill="#A5B4FF"/>
  </g>
  
  <!-- Person with laptop -->
  <g transform="translate(280, 320)">
    <!-- Head -->
    <ellipse cx="0" cy="-60" rx="25" ry="30" fill="#FFBFA3"/>
    
    <!-- Hair -->
    <path d="M -25,-75 Q -30,-90 -20,-85 Q -10,-95 0,-90 Q 10,-95 20,-85 Q 30,-90 25,-75 Q 15,-80 0,-75 Q -15,-80 -25,-75" fill="#2D3748"/>
    
    <!-- Body -->
    <rect x="-40" y="-30" width="80" height="90" rx="20" fill="#4F63FF"/>
    
    <!-- Arms -->
    <ellipse cx="-30" cy="0" rx="15" ry="40" fill="#FFBFA3"/>
    <ellipse cx="30" cy="0" rx="15" ry="40" fill="#FFBFA3"/>
    
    <!-- Laptop -->
    <rect x="-35" y="20" width="70" height="45" rx="5" fill="#2D3748"/>
    <rect x="-30" y="25" width="60" height="35" rx="3" fill="#1A202C"/>
    <circle cx="0" cy="42" r="3" fill="#4F63FF"/>
  </g>
  
  <!-- Decorative leaves -->
  <g transform="translate(550, 400)">
    <path d="M 0,0 Q 20,-10 40,0 Q 30,15 20,20 Q 10,15 0,0" fill="#A5B4FF" opacity="0.6"/>
    <path d="M 10,25 Q 30,15 50,25 Q 40,40 30,45 Q 20,40 10,25" fill="#7C8FFF" opacity="0.6"/>
  </g>
</svg>
